PathFileType	4	(X/Y/Z)	OpenSim_Sub11_CSPreOp_Accel.trc
DataRate	CameraRate	NumFrames	NumMarkers	Units	OrigDataRate	OrigDataStartFrame	OrigNumFrames
100	100	13	8	m	100	3239	3701
Frame#	Time	torso_imu_offset_imu	pelvis_imu_offset_imu	tibia_r_imu_offset_imu	femur_r_imu_offset_imu	tibia_l_imu_offset_imu	femur_l_imu_offset_imu	toes_r_imu_offset_imu	toes_l_imu_offset_imu
				X1	Y1	Z1	X2	Y2	Z2	X3	Y3	Z3	X4	Y4	Z4	X5	Y5	Z5	X6	Y6	Z6	X7	Y7	Z7	X8		Y8	Z8	

3239	32.38000000	9.48548100	-0.16648500	3.92009000	9.23329400	-0.40144400	3.84742500	6.23661700	4.72665400	1.98723800	9.07141100	3.40907500	-1.12717900	9.89163700	0.55167000	0.11612400	9.34777900	1.56280800	-2.15598800	-0.58232200	-1.64471700	10.46462400	5.75570600	0.09525900	7.94942900
3240	32.39000000	9.40724300	-0.30795800	3.81195700	9.14721400	-0.40615800	3.74514200	6.17071000	4.42957100	1.94969100	8.77405800	3.02913800	-1.20934700	9.90818800	0.35444900	0.09024100	9.53791600	1.75239100	-2.16716600	-0.34951400	-1.41539300	10.15976600	5.72898300	0.15846200	7.99052400
3241	32.40000000	9.50458300	-0.29138600	3.76785800	9.05269300	-0.49948100	3.72602200	6.16764000	4.40721700	1.71488800	8.70114700	2.51769400	-1.39919000	10.00397000	0.50854800	0.31049500	9.61862000	1.74947400	-2.29128500	0.23721300	-1.00181500	9.91726800	5.54455400	0.36166500	8.04490300
3242	32.41000000	9.53933600	-0.10583200	3.81535400	9.03399700	-0.58044600	3.69910000	6.11217500	4.46043100	1.73949800	8.46482200	1.94660700	-1.63532300	9.88288200	0.83187500	0.31615200	9.61743700	1.86233500	-2.37636900	0.54157500	-0.98583200	9.59755700	6.04191600	0.10275400	7.70860200
3243	32.42000000	9.51358300	0.05744000	3.82693100	9.01475400	-0.68030300	3.72290900	6.14339200	4.67124800	2.02296500	8.43125200	1.34973900	-1.69498400	9.88443700	1.02369200	0.34526000	9.61495400	2.10808800	-2.34036500	0.75742100	-0.74759700	9.34331700	5.82794500	0.21368600	7.80168500
3244	32.43000000	9.39856500	0.20961000	3.91190500	8.99571900	-0.76061600	3.69502900	6.26745700	5.07103000	2.03877800	8.44838600	0.61032300	-1.62611700	9.91571800	0.84639500	0.33132200	9.58466500	2.14871900	-2.30448700	1.37837700	-0.75339600	9.44200100	5.43035800	0.25861300	8.18598900
3245	32.44000000	9.35802100	0.26808700	3.84032100	9.02322100	-0.84983600	3.64030400	6.54296600	5.52380000	2.02580400	8.58863200	0.00555600	-1.40430400	9.98305500	0.52624100	0.41892100	9.51146100	2.27275300	-2.20322500	2.33401500	-1.15485400	9.68328500	5.60858400	0.42196900	7.98009400
3246	32.45000000	9.32063600	0.34593900	3.86926200	8.95308500	-0.92420600	3.56535100	6.97417700	5.87077900	1.85409000	8.70237700	-0.53849500	-1.13114100	9.93784300	0.53594700	0.48472300	9.39568300	2.48001100	-2.03721400	3.33125900	-1.30542300	9.98871900	5.51017700	0.14229100	8.03786300
3247	32.46000000	9.21301900	0.50227400	3.87455600	8.86816300	-0.94283200	3.51048900	7.62997200	5.96261000	1.52291900	8.84915600	-0.73640000	-0.77252900	9.89792200	0.33082900	0.46387100	9.30698200	2.68210600	-1.90178000	4.24646600	-1.17773900	10.03975700	5.89136600	0.30728800	7.77264600
3248	32.47000000	9.15068900	0.45776200	3.83093200	8.80211100	-0.99078000	3.43267900	8.33015000	5.78939300	1.15287900	8.96525600	-0.84853200	-0.46974200	9.91059000	0.08334200	0.32112600	9.31280100	2.74606100	-1.81350900	4.63193100	-0.84288800	9.62028400	5.74602900	0.00828900	7.88728400
3249	32.48000000	9.09536500	0.55313700	3.83247100	8.74992300	-0.96370300	3.37070100	8.97022200	5.43680700	0.80193900	9.04219500	-0.89893800	-0.36783700	9.91641200	-0.19896000	0.32442400	9.39700700	2.62298000	-1.74097800	4.67563000	-0.85327400	8.95922700	6.21928400	0.15352600	7.64971100
3250	32.49000000	9.03974500	0.70814700	3.83591100	8.80155200	-0.92364000	3.34982000	9.45489800	5.02778800	0.61496600	9.02049000	-1.03134900	-0.41355000	9.87968300	-0.25906600	0.49690700	9.43478800	2.31107700	-1.67186700	5.04834800	-1.09054200	8.41611000	5.69923200	0.08634100	7.86455000
3251	32.50000000	9.05132800	0.71244500	3.79075200	8.78594100	-0.84656900	3.32853700	9.76032600	4.63859800	1.02214000	8.88801800	-1.35538700	-0.52113100	9.70654300	-0.15207200	0.47621600	9.38618300	2.09275900	-1.63378400	5.78915100	-1.04908600	8.37735200	6.03480000	0.15996500	7.85178600
